<svg width="187" height="142" viewBox="0 0 187 142" fill="none" xmlns="http://www.w3.org/2000/svg">
<path d="M65.5862 131.392C32.4323 135.903 14.0134 122.476 9.73848 101.635C6.33271 85.0316 14.0633 60.2429 42.0096 53.5944" stroke="url(#paint0_linear_838_6498)" style="" stroke-width="18" stroke-linecap="round"/>
<path d="M138.725 62.4193C149.955 25.8879 116.576 9.17557 93.55 9.14373C70.5243 9.11189 46.5073 23.3026 46.2849 50.4968L48.3035 66.2352C49.0327 69.022 50.5784 72.0464 52.7821 75.0028C54.4457 77.3646 58.4886 82.6608 61.3512 84.9509" stroke="url(#paint1_linear_838_6498)" style="" stroke-width="18" stroke-linecap="round" stroke-linejoin="round"/>
<path d="M138.725 62.4193C149.955 25.8879 116.576 9.17557 93.55 9.14373C70.5243 9.11189 46.5073 23.3026 46.2849 50.4968L48.3035 66.2352C49.0327 69.022 50.5784 72.0464 52.7821 75.0028C54.4457 77.3646 58.4886 82.6608 61.3512 84.9509" stroke="url(#paint2_linear_838_6498)" style="" stroke-width="18" stroke-linecap="round" stroke-linejoin="round"/>
<path d="M139.25 62.4079C156.434 57.0548 177.013 68.2042 177.013 91.381C177.013 116.858 158.009 132.684 139.328 132.856" stroke="#00FF85" style="stroke:#00FF85;stroke:color(display-p3 0.0000 1.0000 0.5200);stroke-opacity:1;" stroke-width="18" stroke-linecap="round"/>
<path d="M140.309 132.856C123 132.856 111.451 127.327 104.332 112.983C102.68 109.654 102.457 107.124 101.626 103.629" stroke="url(#paint3_linear_838_6498)" style="" stroke-width="18" stroke-linecap="round"/>
<defs>
<linearGradient id="paint0_linear_838_6498" x1="48.6457" y1="48.9995" x2="25.1516" y2="119.403" gradientUnits="userSpaceOnUse">
<stop stop-color="#00FF85" stop-opacity="0" style="stop-color:none;stop-color:none;stop-opacity:0;"/>
<stop offset="1" stop-color="#00FF85" style="stop-color:#00FF85;stop-color:color(display-p3 0.0000 1.0000 0.5216);stop-opacity:1;"/>
</linearGradient>
<linearGradient id="paint1_linear_838_6498" x1="22.0435" y1="84.9509" x2="82.999" y2="135.952" gradientUnits="userSpaceOnUse">
<stop stop-color="#00FF85" style="stop-color:#00FF85;stop-color:color(display-p3 0.0000 1.0000 0.5216);stop-opacity:1;"/>
<stop offset="1" stop-color="#00FF85" stop-opacity="0" style="stop-color:none;stop-color:none;stop-opacity:0;"/>
</linearGradient>
<linearGradient id="paint2_linear_838_6498" x1="67.6276" y1="94.7728" x2="104.644" y2="78.9802" gradientUnits="userSpaceOnUse">
<stop stop-color="#00FF85" style="stop-color:#00FF85;stop-color:color(display-p3 0.0000 1.0000 0.5216);stop-opacity:1;"/>
<stop offset="1" stop-color="#00FF85" stop-opacity="0" style="stop-color:none;stop-color:none;stop-opacity:0;"/>
</linearGradient>
<linearGradient id="paint3_linear_838_6498" x1="128.569" y1="130.435" x2="109.843" y2="89.9653" gradientUnits="userSpaceOnUse">
<stop stop-color="#00FF85" style="stop-color:#00FF85;stop-color:color(display-p3 0.0000 1.0000 0.5216);stop-opacity:1;"/>
<stop offset="1" stop-color="#00FF85" stop-opacity="0" style="stop-color:none;stop-color:none;stop-opacity:0;"/>
</linearGradient>
</defs>
</svg>
