<svg width="530" height="159" viewBox="0 0 530 159" fill="none" xmlns="http://www.w3.org/2000/svg">
<path d="M56.0128 112.75C27.7171 116.6 11.9971 105.14 8.34859 87.3535C5.44187 73.1828 12.0397 52.0265 35.8909 46.3522" stroke="url(#paint0_linear_838_6506)" style="" stroke-width="15" stroke-linecap="round"/>
<path d="M118.434 53.8839C128.019 22.7055 99.5307 8.44213 79.879 8.41496C60.2273 8.38779 39.7296 20.4991 39.5398 43.7084L41.2626 57.1407C41.8849 59.5191 43.2041 62.1004 45.085 64.6235C46.5048 66.6393 49.9552 71.1594 52.3984 73.1139" stroke="url(#paint1_linear_838_6506)" style="" stroke-width="15" stroke-linecap="round" stroke-linejoin="round"/>
<path d="M118.434 53.8839C128.019 22.7055 99.5307 8.44213 79.879 8.41496C60.2273 8.38779 39.7296 20.4991 39.5398 43.7084L41.2626 57.1407C41.8849 59.5191 43.2041 62.1004 45.085 64.6235C46.5048 66.6393 49.9552 71.1594 52.3984 73.1139" stroke="url(#paint2_linear_838_6506)" style="" stroke-width="15" stroke-linecap="round" stroke-linejoin="round"/>
<path d="M118.882 53.8742C133.549 49.3055 151.112 58.8211 151.112 78.6018C151.112 100.346 134.893 113.853 118.949 114" stroke="#00FF85" style="stroke:#00FF85;stroke:color(display-p3 0.0000 1.0000 0.5200);stroke-opacity:1;" stroke-width="15" stroke-linecap="round"/>
<path d="M119.786 114C105.013 114 95.1567 109.281 89.0811 97.0381C87.6713 94.1973 87.4805 92.0378 86.7715 89.0553" stroke="url(#paint3_linear_838_6506)" style="" stroke-width="15" stroke-linecap="round"/>
<path d="M222.533 117.822C234.124 115.938 260.462 109.456 260.822 88.8564" stroke="#00FF85" stroke-opacity="0.3" style="stroke:#00FF85;stroke:color(display-p3 0.0000 1.0000 0.5200);stroke-opacity:0.3;" stroke-width="14" stroke-linecap="round"/>
<path d="M304.307 65.5057C310.865 69.299 324.203 77.6384 324.93 94.8056" stroke="#00FF85" stroke-opacity="0.3" style="stroke:#00FF85;stroke:color(display-p3 0.0000 1.0000 0.5200);stroke-opacity:0.3;" stroke-width="14" stroke-linecap="round"/>
<path d="M374.497 83.0247C374.191 100.592 391.079 114.197 412.864 117.533" stroke="#00FF85" stroke-opacity="0.3" style="stroke:#00FF85;stroke:color(display-p3 0.0000 1.0000 0.5200);stroke-opacity:0.3;" stroke-width="14" stroke-linecap="round"/>
<mask id="path-9-outside-1_838_6506" maskUnits="userSpaceOnUse" x="184.584" y="30.0538" width="64.6754" height="95.9854" fill="black">
<rect fill="white" x="184.584" y="30.0538" width="64.6754" height="95.9854"/>
<path fill-rule="evenodd" clip-rule="evenodd" d="M191.163 117.787C199.454 121.882 208.342 123.929 217.828 123.929C223.504 123.929 228.508 122.863 232.839 120.73C237.17 118.598 240.53 115.655 242.919 111.901C245.308 108.062 246.502 103.754 246.501 98.9771C246.5 93.1762 245.192 88.5696 242.577 85.1573C240.036 81.745 236.936 79.2284 233.276 77.6076C229.691 75.9867 224.948 74.3659 219.047 72.7451C214.491 71.5508 210.869 70.4418 208.18 69.4181C205.565 68.3091 203.362 66.8162 201.569 64.9394C199.851 62.9774 198.991 60.4608 198.99 57.3897C198.989 52.7831 200.818 49.2002 204.477 46.641C208.211 44.0818 213.028 42.8022 218.928 42.8022C225.127 42.8022 231.139 43.9538 236.966 46.2571C237.713 46.5984 238.31 46.769 238.758 46.769C240.103 46.769 241.185 46.2145 242.007 45.1055C242.828 43.9965 243.238 42.7595 243.238 41.3946C243.237 38.8354 242.191 37.1293 240.1 36.2762C233.452 33.461 226.021 32.0535 217.805 32.0535C211.681 32.0535 206.416 33.2478 202.01 35.6364C197.678 37.9397 194.393 41.096 192.153 45.1055C189.914 49.0296 188.795 53.423 188.796 58.2855C188.797 63.8304 190.143 68.2664 192.832 71.5934C195.522 74.9204 198.734 77.437 202.469 79.1431C206.203 80.764 211.096 82.4701 217.146 84.2616C221.702 85.6265 225.212 86.8208 227.677 87.8445C230.142 88.7828 232.196 90.1051 233.84 91.8113C235.558 93.5174 236.418 95.6501 236.418 98.2093C236.421 108.02 229.887 112.925 216.817 112.925C208.975 112.925 201.618 111.176 194.746 107.678C194.073 107.337 193.364 107.167 192.617 107.167C191.273 107.167 190.152 107.721 189.256 108.83C188.435 109.854 188.025 111.091 188.025 112.541C188.025 113.65 188.324 114.716 188.922 115.74C189.52 116.678 190.267 117.361 191.163 117.787Z"/>
</mask>
<path fill-rule="evenodd" clip-rule="evenodd" d="M191.163 117.787C199.454 121.882 208.342 123.929 217.828 123.929C223.504 123.929 228.508 122.863 232.839 120.73C237.17 118.598 240.53 115.655 242.919 111.901C245.308 108.062 246.502 103.754 246.501 98.9771C246.5 93.1762 245.192 88.5696 242.577 85.1573C240.036 81.745 236.936 79.2284 233.276 77.6076C229.691 75.9867 224.948 74.3659 219.047 72.7451C214.491 71.5508 210.869 70.4418 208.18 69.4181C205.565 68.3091 203.362 66.8162 201.569 64.9394C199.851 62.9774 198.991 60.4608 198.99 57.3897C198.989 52.7831 200.818 49.2002 204.477 46.641C208.211 44.0818 213.028 42.8022 218.928 42.8022C225.127 42.8022 231.139 43.9538 236.966 46.2571C237.713 46.5984 238.31 46.769 238.758 46.769C240.103 46.769 241.185 46.2145 242.007 45.1055C242.828 43.9965 243.238 42.7595 243.238 41.3946C243.237 38.8354 242.191 37.1293 240.1 36.2762C233.452 33.461 226.021 32.0535 217.805 32.0535C211.681 32.0535 206.416 33.2478 202.01 35.6364C197.678 37.9397 194.393 41.096 192.153 45.1055C189.914 49.0296 188.795 53.423 188.796 58.2855C188.797 63.8304 190.143 68.2664 192.832 71.5934C195.522 74.9204 198.734 77.437 202.469 79.1431C206.203 80.764 211.096 82.4701 217.146 84.2616C221.702 85.6265 225.212 86.8208 227.677 87.8445C230.142 88.7828 232.196 90.1051 233.84 91.8113C235.558 93.5174 236.418 95.6501 236.418 98.2093C236.421 108.02 229.887 112.925 216.817 112.925C208.975 112.925 201.618 111.176 194.746 107.678C194.073 107.337 193.364 107.167 192.617 107.167C191.273 107.167 190.152 107.721 189.256 108.83C188.435 109.854 188.025 111.091 188.025 112.541C188.025 113.65 188.324 114.716 188.922 115.74C189.52 116.678 190.267 117.361 191.163 117.787Z" fill="#00FF85" style="fill:#00FF85;fill:color(display-p3 0.0000 1.0000 0.5200);fill-opacity:1;"/>
<path d="M191.163 117.787L192.024 115.998C192.015 115.993 192.006 115.989 191.997 115.985L191.163 117.787ZM232.839 120.73L233.748 122.527L233.748 122.527L232.839 120.73ZM242.919 111.901L244.612 112.995C244.616 112.99 244.619 112.984 244.623 112.979L242.919 111.901ZM246.501 98.9771L244.501 98.9427L244.501 98.9427L246.501 98.9771ZM242.577 85.1573L240.979 86.333C240.985 86.3406 240.991 86.3482 240.997 86.3558L242.577 85.1573ZM233.276 77.6076L232.479 79.4272C232.483 79.4294 232.488 79.4315 232.493 79.4336L233.276 77.6076ZM219.047 72.7451L219.546 70.8175C219.538 70.8154 219.531 70.8133 219.523 70.8113L219.047 72.7451ZM208.18 69.4181L207.426 71.2568C207.449 71.2668 207.473 71.2763 207.496 71.2853L208.18 69.4181ZM201.569 64.9394L200.074 66.2417C200.093 66.264 200.113 66.2859 200.134 66.3073L201.569 64.9394ZM198.99 57.3897L196.99 57.3553L196.99 57.3553L198.99 57.3897ZM204.477 46.641L203.326 44.9854C203.321 44.9889 203.316 44.9924 203.311 44.996L204.477 46.641ZM236.966 46.2571L237.771 44.4408C237.738 44.4261 237.706 44.4123 237.673 44.3993L236.966 46.2571ZM242.007 45.1055L243.622 46.3134L243.622 46.3133L242.007 45.1055ZM243.238 41.3946L245.238 41.429L245.238 41.429L243.238 41.3946ZM240.1 36.2762L239.347 38.1154C239.355 38.119 239.364 38.1224 239.372 38.1258L240.1 36.2762ZM202.01 35.6364L202.973 37.4055C202.978 37.403 202.982 37.4005 202.987 37.398L202.01 35.6364ZM192.153 45.1055L193.895 46.1192C193.898 46.114 193.901 46.1088 193.904 46.1035L192.153 45.1055ZM188.796 58.2855L186.795 58.2511L188.796 58.2855ZM192.832 71.5934L191.285 72.8338L191.285 72.8338L192.832 71.5934ZM202.469 79.1431L201.664 80.9594C201.675 80.9648 201.687 80.9701 201.699 80.9752L202.469 79.1431ZM217.146 84.2616L217.689 82.3468L217.683 82.345L217.146 84.2616ZM227.677 87.8445L226.938 89.6892C226.956 89.697 226.975 89.7045 226.994 89.7117L227.677 87.8445ZM233.84 91.8113L232.411 93.1853C232.421 93.1962 232.432 93.207 232.443 93.2177L233.84 91.8113ZM236.418 98.2093L238.419 98.2437L238.419 98.2437L236.418 98.2093ZM194.746 107.678L195.628 105.9L195.626 105.899L194.746 107.678ZM189.256 108.83L187.692 107.557L187.687 107.562L189.256 108.83ZM188.025 112.541L190.025 112.575L190.025 112.575L188.025 112.541ZM188.922 115.74L187.199 116.725C187.212 116.748 187.226 116.771 187.24 116.793L188.922 115.74ZM217.793 121.93C208.607 121.93 200.026 119.95 192.024 115.998L190.302 119.577C198.882 123.815 208.078 125.929 217.863 125.929L217.793 121.93ZM231.93 118.934C227.911 120.912 223.216 121.93 217.793 121.93L217.863 125.929C223.792 125.929 229.104 124.814 233.748 122.527L231.93 118.934ZM241.226 110.807C239.045 114.234 235.968 116.945 231.93 118.934L233.748 122.527C238.372 120.25 242.015 117.076 244.612 112.995L241.226 110.807ZM244.501 98.9427C244.502 103.368 243.401 107.312 241.216 110.824L244.623 112.979C247.216 108.813 248.503 104.14 248.501 99.0115L244.501 98.9427ZM240.997 86.3558C243.256 89.3038 244.499 93.427 244.501 98.9427L248.501 99.0115C248.5 92.9254 247.127 87.8353 244.157 83.9588L240.997 86.3558ZM232.493 79.4336C235.811 80.903 238.637 83.1861 240.979 86.333L244.174 83.9816C241.436 80.3038 238.062 77.5539 234.06 75.7815L232.493 79.4336ZM218.549 74.6727C224.397 76.2791 229.028 77.8673 232.479 79.4272L234.074 75.7879C230.354 74.1062 225.499 72.4527 219.546 70.8175L218.549 74.6727ZM207.496 71.2853C210.282 72.3459 213.984 73.4761 218.572 74.6788L219.523 70.8113C214.999 69.6254 211.455 68.5376 208.863 67.5509L207.496 71.2853ZM200.134 66.3073C202.137 68.4047 204.58 70.0497 207.426 71.2568L208.934 67.5793C206.551 66.5685 204.586 65.2277 203.004 63.5716L200.134 66.3073ZM196.99 57.3553C196.991 60.8189 197.971 63.8405 200.074 66.2417L203.064 63.6372C201.73 62.1143 200.991 60.1028 200.991 57.4241L196.99 57.3553ZM203.311 44.996C199.114 47.9318 196.989 52.1222 196.99 57.3553L200.991 57.4241C200.99 53.4441 202.522 50.4687 205.643 48.2861L203.311 44.996ZM218.893 40.8025C212.709 40.8025 207.471 42.1446 203.326 44.9854L205.628 48.2966C208.951 46.019 213.346 44.8019 218.963 44.8019L218.893 40.8025ZM237.673 44.3993C231.611 42.0027 225.347 40.8025 218.893 40.8025L218.963 44.8019C224.907 44.8019 230.668 45.905 236.258 48.115L237.673 44.3993ZM238.723 44.7693C238.742 44.7693 238.674 44.7708 238.492 44.7189C238.317 44.6688 238.079 44.5815 237.771 44.4408L236.161 48.0734C236.99 48.4523 237.908 48.7687 238.793 48.7687L238.723 44.7693ZM240.392 43.8976C239.924 44.5284 239.416 44.7693 238.723 44.7693L238.793 48.7687C240.789 48.7687 242.446 47.9006 243.622 46.3134L240.392 43.8976ZM241.238 41.3602C241.238 42.2921 240.968 43.1198 240.392 43.8976L243.622 46.3133C244.688 44.8732 245.239 43.227 245.238 41.429L241.238 41.3602ZM239.372 38.1258C240.07 38.4103 240.487 38.7854 240.753 39.2188C241.031 39.6723 241.237 40.3467 241.238 41.3602L245.238 41.429C245.238 39.8833 244.922 38.4251 244.154 37.1724C243.373 35.8996 242.222 34.9951 240.828 34.4265L239.372 38.1258ZM217.84 34.0532C225.825 34.0532 232.983 35.4204 239.347 38.1154L240.853 34.4369C233.921 31.5016 226.216 30.0538 217.77 30.0538L217.84 34.0532ZM202.987 37.398C207.049 35.1957 211.976 34.0532 217.84 34.0532L217.77 30.0538C211.385 30.0538 205.782 31.2999 201.033 33.8747L202.987 37.398ZM193.904 46.1035C195.948 42.444 198.95 39.545 202.973 37.4055L201.046 33.8673C196.407 36.3343 192.838 39.7481 190.403 44.1075L193.904 46.1035ZM190.796 58.3199C190.795 53.7778 191.837 49.7258 193.895 46.1192L190.412 44.0918C187.991 48.3334 186.794 53.0681 186.795 58.2511L190.796 58.3199ZM194.379 70.353C192.062 67.487 190.797 63.5465 190.796 58.3199L186.795 58.2511C186.797 64.1144 188.223 69.0459 191.285 72.8338L194.379 70.353ZM203.274 77.3268C199.839 75.7577 196.877 73.4433 194.379 70.353L191.285 72.8338C194.166 76.3975 197.629 79.1163 201.664 80.9594L203.274 77.3268ZM217.683 82.345C211.674 80.5657 206.868 78.8863 203.238 77.311L201.699 80.9752C205.539 82.6416 210.517 84.3745 216.609 86.1781L217.683 82.345ZM228.417 85.9997C225.857 84.9364 222.269 83.7188 217.689 82.3468L216.602 86.1763C221.135 87.5341 224.568 88.7051 226.938 89.6892L228.417 85.9997ZM235.269 90.4373C233.393 88.4894 231.074 87.0102 228.361 85.9772L226.994 89.7117C229.211 90.5555 231 91.7208 232.411 93.1853L235.269 90.4373ZM238.419 98.2437C238.418 95.1857 237.368 92.5212 235.237 90.4048L232.443 93.2177C233.748 94.5136 234.417 96.1144 234.418 98.1749L238.419 98.2437ZM216.852 114.925C223.582 114.925 228.984 113.671 232.739 110.853C236.595 107.957 238.42 103.637 238.419 98.2437L234.418 98.1749C234.419 102.592 232.978 105.629 230.301 107.639C227.521 109.726 223.121 110.925 216.782 110.925L216.852 114.925ZM193.863 109.457C201.027 113.104 208.7 114.925 216.852 114.925L216.782 110.925C209.25 110.925 202.208 109.248 195.628 105.9L193.863 109.457ZM192.652 109.166C193.081 109.166 193.477 109.261 193.865 109.458L195.626 105.899C194.67 105.413 193.647 105.167 192.582 105.167L192.652 109.166ZM190.821 110.103C191.375 109.417 191.95 109.166 192.652 109.166L192.582 105.167C190.595 105.167 188.93 106.025 187.692 107.557L190.821 110.103ZM190.025 112.575C190.025 111.53 190.311 110.739 190.825 110.098L187.687 107.562C186.559 108.968 186.024 110.652 186.025 112.507L190.025 112.575ZM190.645 114.754C190.217 114.022 190.025 113.305 190.025 112.575L186.025 112.507C186.025 113.994 186.431 115.411 187.199 116.725L190.645 114.754ZM191.997 115.985C191.488 115.742 191.02 115.341 190.604 114.687L187.24 116.793C188.019 118.016 189.045 118.979 190.329 119.59L191.997 115.985Z" fill="#00FF85" style="fill:#00FF85;fill:color(display-p3 0.0000 1.0000 0.5200);fill-opacity:1;" mask="url(#path-9-outside-1_838_6506)"/>
<mask id="path-11-outside-2_838_6506" maskUnits="userSpaceOnUse" x="465.801" y="54.1138" width="64" height="100" fill="black">
<rect fill="white" x="465.801" y="54.1138" width="64" height="100"/>
<path fill-rule="evenodd" clip-rule="evenodd" d="M468.195 76.44C472.415 68.0599 476.443 65.0084 478.968 63.6626C479.014 64.1623 479.039 64.6188 479.044 64.9896C484.948 58.5053 491.787 56.1138 499.562 56.1138C504.48 56.1138 509.097 57.4789 513.412 60.2091C517.809 62.854 521.31 66.7788 523.916 71.9833C526.603 77.1025 527.887 83.1175 527.766 90.0285C527.645 96.9394 526.151 102.997 523.284 108.202C520.497 113.321 516.859 117.246 512.369 119.976C507.96 122.621 503.296 123.943 498.378 123.943C490.604 123.943 483.878 120.701 478.2 114.217L478.63 145.852C478.6 147.558 478.06 148.966 477.009 150.075C475.959 151.184 474.64 151.739 473.054 151.739C471.546 151.739 470.288 151.141 469.277 149.947C468.265 148.838 467.773 147.473 467.802 145.852L468.195 76.44ZM511.286 107.05C507.646 111.06 502.891 113.065 497.021 113.065C493.372 113.065 489.936 112.212 486.713 110.505C483.571 108.714 480.796 106.367 478.387 103.466L478.622 90.0285L478.856 76.5906C481.366 73.6897 484.223 71.386 487.426 69.6796C490.709 67.8879 494.176 66.9921 497.825 66.9921C503.695 66.9921 508.38 68.9971 511.88 73.0071C515.38 77.0172 517.066 82.6909 516.938 90.0285C516.81 97.366 514.926 103.04 511.286 107.05Z"/>
</mask>
<path fill-rule="evenodd" clip-rule="evenodd" d="M468.195 76.44C472.415 68.0599 476.443 65.0084 478.968 63.6626C479.014 64.1623 479.039 64.6188 479.044 64.9896C484.948 58.5053 491.787 56.1138 499.562 56.1138C504.48 56.1138 509.097 57.4789 513.412 60.2091C517.809 62.854 521.31 66.7788 523.916 71.9833C526.603 77.1025 527.887 83.1175 527.766 90.0285C527.645 96.9394 526.151 102.997 523.284 108.202C520.497 113.321 516.859 117.246 512.369 119.976C507.96 122.621 503.296 123.943 498.378 123.943C490.604 123.943 483.878 120.701 478.2 114.217L478.63 145.852C478.6 147.558 478.06 148.966 477.009 150.075C475.959 151.184 474.64 151.739 473.054 151.739C471.546 151.739 470.288 151.141 469.277 149.947C468.265 148.838 467.773 147.473 467.802 145.852L468.195 76.44ZM511.286 107.05C507.646 111.06 502.891 113.065 497.021 113.065C493.372 113.065 489.936 112.212 486.713 110.505C483.571 108.714 480.796 106.367 478.387 103.466L478.622 90.0285L478.856 76.5906C481.366 73.6897 484.223 71.386 487.426 69.6796C490.709 67.8879 494.176 66.9921 497.825 66.9921C503.695 66.9921 508.38 68.9971 511.88 73.0071C515.38 77.0172 517.066 82.6909 516.938 90.0285C516.81 97.366 514.926 103.04 511.286 107.05Z" fill="#00FF85" style="fill:#00FF85;fill:color(display-p3 0.0000 1.0000 0.5200);fill-opacity:1;"/>
<path d="M468.195 76.44L466.409 75.5405C466.27 75.8161 466.197 76.1201 466.195 76.4286L468.195 76.44ZM478.968 63.6626L480.96 63.4801C480.898 62.8129 480.507 62.2207 479.918 61.9025C479.328 61.5843 478.618 61.5825 478.027 61.8976L478.968 63.6626ZM479.044 64.9896L477.045 65.0189C477.057 65.8394 477.569 66.5694 478.336 66.86C479.104 67.1506 479.971 66.9429 480.523 66.3361L479.044 64.9896ZM513.412 60.2091L512.343 61.8993C512.356 61.9073 512.368 61.9152 512.381 61.9229L513.412 60.2091ZM523.916 71.9833L522.128 72.8788C522.134 72.8902 522.139 72.9016 522.145 72.9128L523.916 71.9833ZM527.766 90.0285L525.766 89.9936L527.766 90.0285ZM523.284 108.202L521.532 107.237L521.527 107.245L523.284 108.202ZM512.369 119.976L513.398 121.691L513.408 121.685L512.369 119.976ZM478.2 114.217L479.704 112.899C479.152 112.269 478.266 112.049 477.483 112.349C476.701 112.65 476.188 113.406 476.2 114.244L478.2 114.217ZM478.63 145.852L480.63 145.886C480.63 145.866 480.63 145.845 480.63 145.824L478.63 145.852ZM477.009 150.075L475.557 148.7L475.557 148.7L477.009 150.075ZM469.277 149.947L470.804 148.655C470.788 148.636 470.771 148.617 470.755 148.599L469.277 149.947ZM467.802 145.852L469.801 145.886C469.802 145.879 469.802 145.871 469.802 145.863L467.802 145.852ZM511.286 107.05L512.767 108.394L512.767 108.394L511.286 107.05ZM486.713 110.505L485.722 112.243C485.74 112.253 485.759 112.263 485.777 112.273L486.713 110.505ZM478.387 103.466L476.388 103.431C476.379 103.91 476.543 104.376 476.849 104.744L478.387 103.466ZM478.622 90.0285L476.622 89.9936L478.622 90.0285ZM478.856 76.5906L477.344 75.282C477.037 75.6363 476.865 76.0871 476.857 76.5557L478.856 76.5906ZM487.426 69.6796L488.366 71.4448C488.372 71.4416 488.378 71.4385 488.384 71.4353L487.426 69.6796ZM511.88 73.0071L510.373 74.3222L510.373 74.3222L511.88 73.0071ZM516.938 90.0285L514.938 89.9936L516.938 90.0285ZM469.981 77.3394C474.044 69.2716 477.8 66.5512 479.909 65.4275L478.027 61.8976C475.086 63.4655 470.785 66.8482 466.409 75.5405L469.981 77.3394ZM476.976 63.845C477.018 64.3046 477.04 64.709 477.045 65.0189L481.044 64.9603C481.038 64.5286 481.009 64.02 480.96 63.4801L476.976 63.845ZM480.523 66.3361C486 60.3212 492.274 58.1138 499.562 58.1138V54.1138C491.301 54.1138 483.897 56.6894 477.566 63.6431L480.523 66.3361ZM499.562 58.1138C504.087 58.1138 508.335 59.3633 512.343 61.8993L514.482 58.519C509.859 55.5945 504.874 54.1138 499.562 54.1138V58.1138ZM512.381 61.9229C516.411 64.347 519.668 67.9665 522.128 72.8788L525.704 71.0877C522.952 65.5911 519.207 61.3611 514.443 58.4954L512.381 61.9229ZM522.145 72.9128C524.649 77.6818 525.882 83.3528 525.766 89.9936L529.766 90.0634C529.891 82.8823 528.558 76.5231 525.687 71.0537L522.145 72.9128ZM525.766 89.9936C525.65 96.6322 524.219 102.361 521.532 107.237L525.036 109.167C528.084 103.634 529.64 97.2466 529.766 90.0634L525.766 89.9936ZM521.527 107.245C518.891 112.09 515.487 115.739 511.33 118.267L513.408 121.685C518.232 118.752 522.104 114.552 525.041 109.158L521.527 107.245ZM511.34 118.261C507.227 120.728 502.917 121.943 498.378 121.943V125.943C503.675 125.943 508.693 124.513 513.398 121.691L511.34 118.261ZM498.378 121.943C491.247 121.943 485.049 119.003 479.704 112.899L476.695 115.534C482.706 122.399 489.96 125.943 498.378 125.943V121.943ZM476.2 114.244L476.63 145.879L480.63 145.824L480.2 114.189L476.2 114.244ZM476.63 145.817C476.608 147.087 476.223 147.996 475.557 148.7L478.461 151.45C479.897 149.935 480.592 148.029 480.63 145.886L476.63 145.817ZM475.557 148.7C474.901 149.393 474.115 149.739 473.054 149.739V153.739C475.166 153.739 477.017 152.975 478.461 151.45L475.557 148.7ZM473.054 149.739C472.16 149.739 471.451 149.42 470.804 148.655L467.75 151.239C469.124 152.863 470.933 153.739 473.054 153.739V149.739ZM470.755 148.599C470.116 147.899 469.781 147.042 469.801 145.886L465.802 145.817C465.766 147.904 466.414 149.777 467.8 151.295L470.755 148.599ZM469.802 145.863L470.195 76.4513L466.195 76.4286L465.802 145.84L469.802 145.863ZM497.021 115.065C503.402 115.065 508.714 112.859 512.767 108.394L509.805 105.706C506.578 109.26 502.38 111.065 497.021 111.065V115.065ZM485.777 112.273C489.288 114.132 493.046 115.065 497.021 115.065V111.065C493.698 111.065 490.583 110.291 487.649 108.738L485.777 112.273ZM476.849 104.744C479.404 107.822 482.363 110.327 485.722 112.243L487.704 108.768C484.779 107.1 482.188 104.913 479.926 102.189L476.849 104.744ZM476.622 89.9936L476.388 103.431L480.387 103.501L480.622 90.0634L476.622 89.9936ZM476.857 76.5557L476.622 89.9936L480.622 90.0634L480.856 76.6255L476.857 76.5557ZM486.485 67.9145C483.053 69.7431 480.006 72.2057 477.344 75.282L480.369 77.8992C482.727 75.1736 485.392 73.029 488.366 71.4448L486.485 67.9145ZM497.825 64.9921C493.832 64.9921 490.038 65.9761 486.468 67.924L488.384 71.4353C491.381 69.7997 494.519 68.9921 497.825 68.9921V64.9921ZM513.387 71.692C509.465 67.1989 504.206 64.9921 497.825 64.9921V68.9921C503.184 68.9921 507.295 70.7952 510.373 74.3222L513.387 71.692ZM518.937 90.0634C519.071 82.4191 517.318 76.1967 513.387 71.692L510.373 74.3222C513.441 77.8376 515.061 82.9628 514.938 89.9936L518.937 90.0634ZM512.767 108.394C516.833 103.914 518.804 97.7123 518.937 90.0634L514.938 89.9936C514.815 97.0196 513.018 102.165 509.805 105.706L512.767 108.394Z" fill="#00FF85" style="fill:#00FF85;fill:color(display-p3 0.0000 1.0000 0.5200);fill-opacity:1;" mask="url(#path-11-outside-2_838_6506)"/>
<path d="M260.421 109.775L260.421 109.775L260.427 109.785C263.626 114.89 267.775 118.736 272.872 121.297C277.957 123.852 283.444 124.973 289.315 124.666C293.597 124.441 297.305 123.681 300.413 122.356L300.428 122.35C303.543 120.964 306.411 119.283 309.028 117.306L309.028 117.306L309.036 117.3C310.832 115.915 311.731 114.071 311.654 111.857C311.6 110.314 310.974 108.966 309.845 107.84C308.783 106.614 307.466 105.949 305.926 106.029C304.854 106.086 303.825 106.456 302.849 107.091C300.322 108.654 298.16 109.805 296.355 110.558C294.688 111.196 292.519 111.602 289.816 111.744C283.224 112.089 278.095 110.342 274.301 106.6C270.48 102.749 268.415 97.5193 268.181 90.8107C267.946 84.0992 269.642 78.7193 273.179 74.5702L273.179 74.5702L273.186 74.5624C276.703 70.3525 281.69 68.0359 288.278 67.6906C290.978 67.5491 293.158 67.7689 294.853 68.3078C294.87 68.3132 294.888 68.3182 294.905 68.3227C296.736 68.7965 298.96 69.6694 301.587 70.9629C302.604 71.4937 303.655 71.7546 304.727 71.6985C306.247 71.6188 307.519 70.8789 308.51 69.6122C309.548 68.2932 310.082 66.8445 310.028 65.2932C309.95 63.0788 308.926 61.336 307.04 60.1438L307.04 60.1438L307.031 60.1386C304.284 58.4414 301.309 57.1083 298.108 56.1383C294.911 55.0557 291.16 54.6439 286.878 54.8684C281.007 55.176 275.618 56.8675 270.73 59.9449C265.83 63.0297 261.964 67.2962 259.133 72.7169L259.133 72.7169L259.127 72.7275C256.364 78.1723 255.124 84.4345 255.37 91.482C255.616 98.5296 257.288 104.639 260.421 109.775Z" fill="#00FF85" stroke="#00FF85" style="fill:#00FF85;fill:color(display-p3 0.0000 1.0000 0.5200);fill-opacity:1;stroke:#00FF85;stroke:color(display-p3 0.0000 1.0000 0.5200);stroke-opacity:1;" stroke-width="2" stroke-linejoin="round"/>
<path d="M488.531 55.9638C482.991 57.5535 476.106 62.9289 473.356 65.4179L475.825 66.562C482.369 62.3669 494.071 54.374 488.531 55.9638Z" fill="#00FF85" style="fill:#00FF85;fill:color(display-p3 0.0000 1.0000 0.5200);fill-opacity:1;"/>
<path d="M349.185 123.943C343.076 123.943 337.746 122.535 333.194 119.72C328.642 116.904 325.142 112.937 322.693 107.818C320.324 102.613 319.198 96.6834 319.315 90.0285C319.431 83.3735 320.763 77.4864 323.312 72.3672C325.941 67.1627 329.581 63.1527 334.231 60.3371C338.881 57.5215 344.26 56.1138 350.369 56.1138C356.398 56.1138 361.688 57.5215 366.24 60.3371C370.792 63.1527 374.292 67.1627 376.739 72.3672C379.189 77.4864 380.355 83.3735 380.239 90.0285C380.123 96.6834 378.75 102.613 376.121 107.818C373.493 112.937 369.854 116.904 365.204 119.72C360.553 122.535 355.214 123.943 349.185 123.943ZM349.37 113.321C352.623 113.321 355.731 112.51 358.694 110.889C361.737 109.268 364.241 106.709 366.206 103.21C368.25 99.7123 369.319 95.2756 369.413 89.9005C369.505 84.6106 368.59 80.2167 366.668 76.7185C364.825 73.2204 362.41 70.7035 359.422 69.1677C356.515 67.5466 353.436 66.7361 350.183 66.7361C346.851 66.7361 343.664 67.5466 340.621 69.1677C337.659 70.7035 335.196 73.2204 333.231 76.7185C331.266 80.2167 330.237 84.6106 330.145 89.9005C330.051 95.2756 330.926 99.7123 332.769 103.21C334.611 106.709 336.986 109.268 339.893 110.889C342.879 112.51 346.038 113.321 349.37 113.321Z" fill="#00FF85" style="fill:#00FF85;fill:color(display-p3 0.0000 1.0000 0.5200);fill-opacity:1;"/>
<path d="M349.185 123.943C343.076 123.943 337.746 122.535 333.194 119.72C328.642 116.904 325.142 112.937 322.693 107.818C320.324 102.613 319.198 96.6834 319.315 90.0285C319.431 83.3735 320.763 77.4864 323.312 72.3672C325.941 67.1627 329.581 63.1527 334.231 60.3371C338.881 57.5215 344.26 56.1138 350.369 56.1138C356.398 56.1138 361.688 57.5215 366.24 60.3371C370.792 63.1527 374.292 67.1627 376.739 72.3672C379.189 77.4864 380.355 83.3735 380.239 90.0285C380.123 96.6834 378.75 102.613 376.121 107.818C373.493 112.937 369.854 116.904 365.204 119.72C360.553 122.535 355.214 123.943 349.185 123.943ZM349.37 113.321C352.623 113.321 355.731 112.51 358.694 110.889C361.737 109.268 364.241 106.709 366.206 103.21C368.25 99.7123 369.319 95.2756 369.413 89.9005C369.505 84.6106 368.59 80.2167 366.668 76.7185C364.825 73.2204 362.41 70.7035 359.422 69.1677C356.515 67.5466 353.436 66.7361 350.183 66.7361C346.851 66.7361 343.664 67.5466 340.621 69.1677C337.659 70.7035 335.196 73.2204 333.231 76.7185C331.266 80.2167 330.237 84.6106 330.145 89.9005C330.051 95.2756 330.926 99.7123 332.769 103.21C334.611 106.709 336.986 109.268 339.893 110.889C342.879 112.51 346.038 113.321 349.37 113.321Z" fill="#00FF85" style="fill:#00FF85;fill:color(display-p3 0.0000 1.0000 0.5200);fill-opacity:1;"/>
<path d="M349.185 123.943C343.076 123.943 337.746 122.535 333.194 119.72C328.642 116.904 325.142 112.937 322.693 107.818C320.324 102.613 319.198 96.6834 319.315 90.0285C319.431 83.3735 320.763 77.4864 323.312 72.3672C325.941 67.1627 329.581 63.1527 334.231 60.3371C338.881 57.5215 344.26 56.1138 350.369 56.1138C356.398 56.1138 361.688 57.5215 366.24 60.3371C370.792 63.1527 374.292 67.1627 376.739 72.3672C379.189 77.4864 380.355 83.3735 380.239 90.0285C380.123 96.6834 378.75 102.613 376.121 107.818C373.493 112.937 369.854 116.904 365.204 119.72C360.553 122.535 355.214 123.943 349.185 123.943ZM349.37 113.321C352.623 113.321 355.731 112.51 358.694 110.889C361.737 109.268 364.241 106.709 366.206 103.21C368.25 99.7123 369.319 95.2756 369.413 89.9005C369.505 84.6106 368.59 80.2167 366.668 76.7185C364.825 73.2204 362.41 70.7035 359.422 69.1677C356.515 67.5466 353.436 66.7361 350.183 66.7361C346.851 66.7361 343.664 67.5466 340.621 69.1677C337.659 70.7035 335.196 73.2204 333.231 76.7185C331.266 80.2167 330.237 84.6106 330.145 89.9005C330.051 95.2756 330.926 99.7123 332.769 103.21C334.611 106.709 336.986 109.268 339.893 110.889C342.879 112.51 346.038 113.321 349.37 113.321Z" stroke="#00FF85" style="stroke:#00FF85;stroke:color(display-p3 0.0000 1.0000 0.5200);stroke-opacity:1;" stroke-width="3" stroke-linejoin="round"/>
<path d="M421.58 123.943C415.472 123.943 410.141 122.535 405.59 119.72C401.038 116.904 397.537 112.937 395.088 107.818C392.72 102.613 391.593 96.6834 391.71 90.0285C391.826 83.3735 393.158 77.4864 395.707 72.3672C398.336 67.1627 401.976 63.1527 406.626 60.3371C411.276 57.5215 416.656 56.1138 422.764 56.1138C428.793 56.1138 434.083 57.5215 438.635 60.3371C443.187 63.1527 446.687 67.1627 449.135 72.3672C451.584 77.4864 452.75 83.3735 452.634 90.0285C452.518 96.6834 451.145 102.613 448.516 107.818C445.888 112.937 442.249 116.904 437.599 119.72C432.948 122.535 427.609 123.943 421.58 123.943ZM421.765 113.321C425.018 113.321 428.126 112.51 431.089 110.889C434.132 109.268 436.636 106.709 438.601 103.21C440.645 99.7123 441.714 95.2756 441.808 89.9005C441.9 84.6106 440.985 80.2167 439.063 76.7185C437.22 73.2204 434.805 70.7035 431.817 69.1677C428.911 67.5466 425.831 66.7361 422.578 66.7361C419.247 66.7361 416.059 67.5466 413.017 69.1677C410.055 70.7035 407.591 73.2204 405.626 76.7185C403.661 80.2167 402.633 84.6106 402.54 89.9005C402.446 95.2756 403.321 99.7123 405.164 103.21C407.007 106.709 409.381 109.268 412.288 110.889C415.274 112.51 418.433 113.321 421.765 113.321Z" fill="#00FF85" style="fill:#00FF85;fill:color(display-p3 0.0000 1.0000 0.5200);fill-opacity:1;"/>
<path d="M421.58 123.943C415.472 123.943 410.141 122.535 405.59 119.72C401.038 116.904 397.537 112.937 395.088 107.818C392.72 102.613 391.593 96.6834 391.71 90.0285C391.826 83.3735 393.158 77.4864 395.707 72.3672C398.336 67.1627 401.976 63.1527 406.626 60.3371C411.276 57.5215 416.656 56.1138 422.764 56.1138C428.793 56.1138 434.083 57.5215 438.635 60.3371C443.187 63.1527 446.687 67.1627 449.135 72.3672C451.584 77.4864 452.75 83.3735 452.634 90.0285C452.518 96.6834 451.145 102.613 448.516 107.818C445.888 112.937 442.249 116.904 437.599 119.72C432.948 122.535 427.609 123.943 421.58 123.943ZM421.765 113.321C425.018 113.321 428.126 112.51 431.089 110.889C434.132 109.268 436.636 106.709 438.601 103.21C440.645 99.7123 441.714 95.2756 441.808 89.9005C441.9 84.6106 440.985 80.2167 439.063 76.7185C437.22 73.2204 434.805 70.7035 431.817 69.1677C428.911 67.5466 425.831 66.7361 422.578 66.7361C419.247 66.7361 416.059 67.5466 413.017 69.1677C410.055 70.7035 407.591 73.2204 405.626 76.7185C403.661 80.2167 402.633 84.6106 402.54 89.9005C402.446 95.2756 403.321 99.7123 405.164 103.21C407.007 106.709 409.381 109.268 412.288 110.889C415.274 112.51 418.433 113.321 421.765 113.321Z" fill="#00FF85" style="fill:#00FF85;fill:color(display-p3 0.0000 1.0000 0.5200);fill-opacity:1;"/>
<path d="M421.58 123.943C415.472 123.943 410.141 122.535 405.59 119.72C401.038 116.904 397.537 112.937 395.088 107.818C392.72 102.613 391.593 96.6834 391.71 90.0285C391.826 83.3735 393.158 77.4864 395.707 72.3672C398.336 67.1627 401.976 63.1527 406.626 60.3371C411.276 57.5215 416.656 56.1138 422.764 56.1138C428.793 56.1138 434.083 57.5215 438.635 60.3371C443.187 63.1527 446.687 67.1627 449.135 72.3672C451.584 77.4864 452.75 83.3735 452.634 90.0285C452.518 96.6834 451.145 102.613 448.516 107.818C445.888 112.937 442.249 116.904 437.599 119.72C432.948 122.535 427.609 123.943 421.58 123.943ZM421.765 113.321C425.018 113.321 428.126 112.51 431.089 110.889C434.132 109.268 436.636 106.709 438.601 103.21C440.645 99.7123 441.714 95.2756 441.808 89.9005C441.9 84.6106 440.985 80.2167 439.063 76.7185C437.22 73.2204 434.805 70.7035 431.817 69.1677C428.911 67.5466 425.831 66.7361 422.578 66.7361C419.247 66.7361 416.059 67.5466 413.017 69.1677C410.055 70.7035 407.591 73.2204 405.626 76.7185C403.661 80.2167 402.633 84.6106 402.54 89.9005C402.446 95.2756 403.321 99.7123 405.164 103.21C407.007 106.709 409.381 109.268 412.288 110.889C415.274 112.51 418.433 113.321 421.765 113.321Z" stroke="#00FF85" style="stroke:#00FF85;stroke:color(display-p3 0.0000 1.0000 0.5200);stroke-opacity:1;" stroke-width="3" stroke-linejoin="round"/>
<path d="M480.742 81.7392C481.505 76.783 484.996 73.3334 486.645 72.2281L480.014 74.9331C479.938 79.2669 479.978 86.6954 480.742 81.7392Z" fill="#00FF85" style="fill:#00FF85;fill:color(display-p3 0.0000 1.0000 0.5200);fill-opacity:1;"/>
<path d="M484.904 106.868C481.323 103.365 480.478 98.6593 480.504 96.7441L478.997 103.42C482.458 106.029 488.486 110.37 484.904 106.868Z" fill="#00FF85" style="fill:#00FF85;fill:color(display-p3 0.0000 1.0000 0.5200);fill-opacity:1;"/>
<path d="M500.583 133.693L480.522 130.326L480.127 112.73L480.522 94.9775H500.583V133.693Z" fill="url(#paint4_linear_838_6506)" style=""/>
<path d="M262.215 84.7135C261.472 92.7531 261.364 100.625 268.962 109.818" stroke="#00FF85" style="stroke:#00FF85;stroke:color(display-p3 0.0000 1.0000 0.5200);stroke-opacity:1;" stroke-width="14.1" stroke-linecap="round"/>
<path d="M372.934 100.639C374.086 95.8476 374.991 89.6667 373.791 80.0662" stroke="#00FF85" style="stroke:#00FF85;stroke:color(display-p3 0.0000 1.0000 0.5200);stroke-opacity:1;" stroke-width="13" stroke-linecap="round"/>
<path d="M466.115 83.461C466.503 76.4665 469.515 70.2652 470.972 68.0389L458.586 58.8099C460.933 69.9414 465.726 90.4556 466.115 83.461Z" fill="#001F23" style="fill:#001F23;fill:color(display-p3 0.0000 0.1210 0.1375);fill-opacity:1;"/>
<path d="M437.874 113.384C443.532 110.648 468.783 102.037 474.5 76.3066" stroke="#00FF85" stroke-opacity="0.3" style="stroke:#00FF85;stroke:color(display-p3 0.0000 1.0000 0.5200);stroke-opacity:0.3;" stroke-width="14" stroke-linecap="round"/>
<path d="M413.467 143.702C401.174 153.322 373.382 155.46 355.745 143.702" stroke="#00FF85" style="stroke:#00FF85;stroke:color(display-p3 0.0000 1.0000 0.5200);stroke-opacity:1;" stroke-width="14" stroke-linecap="round"/>
<defs>
<linearGradient id="paint0_linear_838_6506" x1="41.5546" y1="42.4306" x2="21.5032" y2="102.518" gradientUnits="userSpaceOnUse">
<stop stop-color="#00FF85" stop-opacity="0" style="stop-color:none;stop-color:none;stop-opacity:0;"/>
<stop offset="1" stop-color="#00FF85" style="stop-color:#00FF85;stop-color:color(display-p3 0.0000 1.0000 0.5216);stop-opacity:1;"/>
</linearGradient>
<linearGradient id="paint1_linear_838_6506" x1="18.8505" y1="73.1139" x2="70.874" y2="116.641" gradientUnits="userSpaceOnUse">
<stop stop-color="#00FF85" style="stop-color:#00FF85;stop-color:color(display-p3 0.0000 1.0000 0.5216);stop-opacity:1;"/>
<stop offset="1" stop-color="#00FF85" stop-opacity="0" style="stop-color:none;stop-color:none;stop-opacity:0;"/>
</linearGradient>
<linearGradient id="paint2_linear_838_6506" x1="57.7551" y1="81.4966" x2="89.3475" y2="68.0181" gradientUnits="userSpaceOnUse">
<stop stop-color="#00FF85" style="stop-color:#00FF85;stop-color:color(display-p3 0.0000 1.0000 0.5216);stop-opacity:1;"/>
<stop offset="1" stop-color="#00FF85" stop-opacity="0" style="stop-color:none;stop-color:none;stop-opacity:0;"/>
</linearGradient>
<linearGradient id="paint3_linear_838_6506" x1="109.766" y1="111.933" x2="93.7841" y2="77.3935" gradientUnits="userSpaceOnUse">
<stop stop-color="#00FF85" style="stop-color:#00FF85;stop-color:color(display-p3 0.0000 1.0000 0.5216);stop-opacity:1;"/>
<stop offset="1" stop-color="#00FF85" stop-opacity="0" style="stop-color:none;stop-color:none;stop-opacity:0;"/>
</linearGradient>
<linearGradient id="paint4_linear_838_6506" x1="480.521" y1="110.608" x2="500.587" y2="112.23" gradientUnits="userSpaceOnUse">
<stop stop-opacity="0.4" style="stop-color:black;stop-color:black;stop-opacity:0.4;"/>
<stop offset="1" stop-opacity="0" style="stop-color:none;stop-color:none;stop-opacity:0;"/>
</linearGradient>
</defs>
</svg>
